<?xml version="1.0" encoding="utf-8"?>
<!-- Generator: Adobe Illustrator 18.0.0, SVG Export Plug-In . SVG Version: 6.00 Build 0)  -->
<!DOCTYPE svg PUBLIC "-//W3C//DTD SVG 1.1//EN" "http://www.w3.org/Graphics/SVG/1.1/DTD/svg11.dtd">
<svg version="1.1" id="Shape_1_1_" xmlns="http://www.w3.org/2000/svg" xmlns:xlink="http://www.w3.org/1999/xlink" x="0px" y="0px"
	 width="22px" height="15px" fill="#969696" viewBox="0 0 22 15" enable-background="new 0 0 22 15" xml:space="preserve">
<g id="Shape_1">
	<g>
		<path fill-rule="evenodd" clip-rule="evenodd" d="M22,1.3C22,0.6,21.5,0,20.9,0c0,0,0,0,0,0L1.1,0C0.8,0,0.5,0.2,0.3,0.4
			C0.1,0.6,0,1,0,1.3l0,12.4c0,0.3,0.1,0.7,0.3,0.9C0.6,14.9,0.8,15,1.1,15c0,0,0,0,0,0l19.7,0c0.6,0,1.1-0.6,1.1-1.3L22,1.3z
			 M19.6,1.3L11,8L2.4,1.3L19.6,1.3z M14.6,9.3l5.1,4.4l-17.5,0l5.1-4.5C7.6,9,7.7,8.6,7.5,8.4C7.3,8.1,6.9,8,6.7,8.3l-5.5,4.8
			l0-11.2l9.6,7.4c0.1,0.1,0.2,0.1,0.3,0.1c0.1,0,0.2,0,0.3-0.1l9.5-7.4l0,11.2l-5.5-4.8c-0.2-0.2-0.6-0.2-0.8,0.1
			C14.4,8.6,14.4,9,14.6,9.3z"/>
	</g>
</g>
</svg>
