<?xml version="1.0" encoding="utf-8"?>
<!-- Generator: Adobe Illustrator 18.0.0, SVG Export Plug-In . SVG Version: 6.00 Build 0)  -->
<!DOCTYPE svg PUBLIC "-//W3C//DTD SVG 1.1//EN" "http://www.w3.org/Graphics/SVG/1.1/DTD/svg11.dtd">
<svg version="1.1" id="Forma_1_1_" xmlns="http://www.w3.org/2000/svg" xmlns:xlink="http://www.w3.org/1999/xlink" x="0px" y="0px"
	 width="25px" height="25px" fill="#969696" viewBox="0 0 25 25" enable-background="new 0 0 25 25" xml:space="preserve">
<g id="Forma_1">
	<g>
		<path d="M17.7,0H7.3c-1,0-1.8,0.8-1.8,1.8v21.3c0,1,0.8,1.8,1.8,1.8h10.5c1,0,1.8-0.8,1.8-1.8V1.8C19.6,0.8,18.7,0,17.7,0z
			 M18.7,23.2c0,0.6-0.4,1-1,1H7.3c-0.6,0-1-0.4-1-1V20h12.5V23.2z M18.7,19.2H6.3V3.3h12.5V19.2z M18.7,2.5H6.3V1.8
			c0-0.6,0.4-1,1-1h10.5c0.6,0,1,0.4,1,1V2.5z M12.5,23.8c0.9,0,1.7-0.7,1.7-1.7c0-0.9-0.7-1.7-1.7-1.7c-0.9,0-1.7,0.7-1.7,1.7
			C10.8,23,11.6,23.8,12.5,23.8z M12.5,21.3c0.5,0,0.8,0.4,0.8,0.8s-0.4,0.8-0.8,0.8s-0.8-0.4-0.8-0.8S12,21.3,12.5,21.3z M12.5,1.3
			h-1.7c-0.2,0-0.4,0.2-0.4,0.4s0.2,0.4,0.4,0.4h1.7c0.2,0,0.4-0.2,0.4-0.4S12.7,1.3,12.5,1.3z M14.2,1.3h-0.4
			c-0.2,0-0.4,0.2-0.4,0.4s0.2,0.4,0.4,0.4h0.4c0.2,0,0.4-0.2,0.4-0.4S14.4,1.3,14.2,1.3z M23.5,1.9c-0.2-0.2-0.4-0.2-0.6,0
			c-0.2,0.2-0.2,0.4,0,0.6c1.6,1.6,1.6,4.1,0,5.6c-0.2,0.2-0.2,0.4,0,0.6c0.1,0.1,0.2,0.1,0.3,0.1c0.1,0,0.2,0,0.3-0.1
			C25.4,6.8,25.4,3.8,23.5,1.9z M21.8,2.9c-0.2-0.2-0.4-0.2-0.6,0C21,3,21,3.3,21.2,3.4C21.7,4,22,4.6,22,5.4s-0.3,1.4-0.8,1.9
			c-0.2,0.2-0.2,0.4,0,0.6C21.3,8,21.4,8,21.5,8s0.2,0,0.3-0.1c0.7-0.7,1-1.6,1-2.5C22.8,4.4,22.5,3.5,21.8,2.9z M2,2.5
			c0.2-0.2,0.2-0.4,0-0.6c-0.2-0.2-0.4-0.2-0.6,0c-1.9,1.9-1.9,4.9,0,6.8c0.1,0.1,0.2,0.1,0.3,0.1S2,8.8,2,8.7
			c0.2-0.2,0.2-0.4,0-0.6C0.5,6.6,0.5,4,2,2.5z M3,5.3c0-0.7,0.3-1.4,0.8-1.9C4,3.2,4,2.9,3.8,2.7c-0.2-0.2-0.4-0.2-0.6,0
			c-0.7,0.7-1,1.6-1,2.5c0,1,0.4,1.8,1,2.5c0.1,0.1,0.2,0.1,0.3,0.1c0.1,0,0.2,0,0.3-0.1C4,7.6,4,7.4,3.8,7.2C3.3,6.7,3,6,3,5.3z"/>
	</g>
</g>
</svg>
